<mxfile host="app.diagrams.net" modified="2024-03-06T18:21:58.879Z" agent="Mozilla/5.0 (Windows NT 10.0; Win64; x64) AppleWebKit/537.36 (KHTML, like Gecko) Chrome/122.0.0.0 Safari/537.36" etag="cgOm-jHN-TuTNzrqOmlq" version="24.0.2" type="google">
  <diagram name="Page-1" id="Dssvo8Pl41vSnj8i_rGr">
    <mxGraphModel dx="2794" dy="2131" grid="1" gridSize="10" guides="1" tooltips="1" connect="1" arrows="1" fold="1" page="1" pageScale="1" pageWidth="850" pageHeight="1100" math="0" shadow="0">
      <root>
        <mxCell id="0" />
        <mxCell id="1" parent="0" />
        <mxCell id="JEJW3hreMP1SYT_nmHP7-88" style="edgeStyle=orthogonalEdgeStyle;rounded=0;orthogonalLoop=1;jettySize=auto;html=1;exitX=0;exitY=0;exitDx=0;exitDy=0;entryX=1;entryY=0.5;entryDx=0;entryDy=0;" parent="1" source="YXkOq4lO17gAsWJ2cgE3-1" target="JEJW3hreMP1SYT_nmHP7-36" edge="1">
          <mxGeometry relative="1" as="geometry" />
        </mxCell>
        <mxCell id="JEJW3hreMP1SYT_nmHP7-91" style="edgeStyle=orthogonalEdgeStyle;rounded=0;orthogonalLoop=1;jettySize=auto;html=1;exitX=0;exitY=0.5;exitDx=0;exitDy=0;entryX=0.5;entryY=0;entryDx=0;entryDy=0;" parent="1" source="YXkOq4lO17gAsWJ2cgE3-1" target="JEJW3hreMP1SYT_nmHP7-31" edge="1">
          <mxGeometry relative="1" as="geometry" />
        </mxCell>
        <mxCell id="YXkOq4lO17gAsWJ2cgE3-1" value="Manufacturer" style="rounded=0;whiteSpace=wrap;html=1;" parent="1" vertex="1">
          <mxGeometry x="-20" y="260" width="120" height="60" as="geometry" />
        </mxCell>
        <mxCell id="YXkOq4lO17gAsWJ2cgE3-5" value="" style="edgeStyle=orthogonalEdgeStyle;rounded=0;orthogonalLoop=1;jettySize=auto;html=1;" parent="1" source="YXkOq4lO17gAsWJ2cgE3-2" target="YXkOq4lO17gAsWJ2cgE3-4" edge="1">
          <mxGeometry relative="1" as="geometry" />
        </mxCell>
        <mxCell id="YXkOq4lO17gAsWJ2cgE3-2" value="Supplies" style="rhombus;whiteSpace=wrap;html=1;rounded=0;" parent="1" vertex="1">
          <mxGeometry x="200" y="250" width="80" height="80" as="geometry" />
        </mxCell>
        <mxCell id="JEJW3hreMP1SYT_nmHP7-82" style="edgeStyle=orthogonalEdgeStyle;rounded=0;orthogonalLoop=1;jettySize=auto;html=1;exitX=1;exitY=0.25;exitDx=0;exitDy=0;entryX=0.5;entryY=1;entryDx=0;entryDy=0;" parent="1" source="YXkOq4lO17gAsWJ2cgE3-4" target="JEJW3hreMP1SYT_nmHP7-42" edge="1">
          <mxGeometry relative="1" as="geometry" />
        </mxCell>
        <mxCell id="JEJW3hreMP1SYT_nmHP7-84" style="edgeStyle=orthogonalEdgeStyle;rounded=0;orthogonalLoop=1;jettySize=auto;html=1;exitX=0.75;exitY=0;exitDx=0;exitDy=0;entryX=0;entryY=1;entryDx=0;entryDy=0;" parent="1" source="YXkOq4lO17gAsWJ2cgE3-4" target="JEJW3hreMP1SYT_nmHP7-43" edge="1">
          <mxGeometry relative="1" as="geometry" />
        </mxCell>
        <mxCell id="JEJW3hreMP1SYT_nmHP7-135" style="edgeStyle=orthogonalEdgeStyle;rounded=0;orthogonalLoop=1;jettySize=auto;html=1;exitX=1;exitY=0;exitDx=0;exitDy=0;entryX=0.5;entryY=1;entryDx=0;entryDy=0;" parent="1" source="YXkOq4lO17gAsWJ2cgE3-4" target="JEJW3hreMP1SYT_nmHP7-44" edge="1">
          <mxGeometry relative="1" as="geometry" />
        </mxCell>
        <mxCell id="YXkOq4lO17gAsWJ2cgE3-4" value="Supplier" style="whiteSpace=wrap;html=1;rounded=0;" parent="1" vertex="1">
          <mxGeometry x="340" y="260" width="120" height="60" as="geometry" />
        </mxCell>
        <mxCell id="YXkOq4lO17gAsWJ2cgE3-9" value="" style="edgeStyle=orthogonalEdgeStyle;rounded=0;orthogonalLoop=1;jettySize=auto;html=1;" parent="1" source="YXkOq4lO17gAsWJ2cgE3-6" target="YXkOq4lO17gAsWJ2cgE3-8" edge="1">
          <mxGeometry relative="1" as="geometry" />
        </mxCell>
        <mxCell id="YXkOq4lO17gAsWJ2cgE3-6" value="Has" style="rhombus;whiteSpace=wrap;html=1;rounded=0;" parent="1" vertex="1">
          <mxGeometry x="360" y="390" width="80" height="80" as="geometry" />
        </mxCell>
        <mxCell id="YXkOq4lO17gAsWJ2cgE3-40" value="" style="edgeStyle=orthogonalEdgeStyle;rounded=0;orthogonalLoop=1;jettySize=auto;html=1;" parent="1" source="YXkOq4lO17gAsWJ2cgE3-8" target="YXkOq4lO17gAsWJ2cgE3-39" edge="1">
          <mxGeometry relative="1" as="geometry" />
        </mxCell>
        <mxCell id="JEJW3hreMP1SYT_nmHP7-120" style="edgeStyle=orthogonalEdgeStyle;rounded=0;orthogonalLoop=1;jettySize=auto;html=1;exitX=1;exitY=0;exitDx=0;exitDy=0;entryX=0.5;entryY=1;entryDx=0;entryDy=0;" parent="1" source="YXkOq4lO17gAsWJ2cgE3-8" target="JEJW3hreMP1SYT_nmHP7-119" edge="1">
          <mxGeometry relative="1" as="geometry" />
        </mxCell>
        <mxCell id="JEJW3hreMP1SYT_nmHP7-121" style="edgeStyle=orthogonalEdgeStyle;rounded=0;orthogonalLoop=1;jettySize=auto;html=1;exitX=0;exitY=0;exitDx=0;exitDy=0;entryX=1;entryY=0.5;entryDx=0;entryDy=0;" parent="1" source="YXkOq4lO17gAsWJ2cgE3-8" target="JEJW3hreMP1SYT_nmHP7-118" edge="1">
          <mxGeometry relative="1" as="geometry" />
        </mxCell>
        <mxCell id="YXkOq4lO17gAsWJ2cgE3-8" value="Employee" style="whiteSpace=wrap;html=1;rounded=0;" parent="1" vertex="1">
          <mxGeometry x="340" y="560" width="120" height="60" as="geometry" />
        </mxCell>
        <mxCell id="YXkOq4lO17gAsWJ2cgE3-73" style="edgeStyle=orthogonalEdgeStyle;rounded=0;orthogonalLoop=1;jettySize=auto;html=1;exitX=0;exitY=0.5;exitDx=0;exitDy=0;entryX=0.5;entryY=1;entryDx=0;entryDy=0;" parent="1" source="YXkOq4lO17gAsWJ2cgE3-10" target="YXkOq4lO17gAsWJ2cgE3-41" edge="1">
          <mxGeometry relative="1" as="geometry">
            <Array as="points">
              <mxPoint x="360" y="670" />
              <mxPoint x="40" y="670" />
            </Array>
          </mxGeometry>
        </mxCell>
        <mxCell id="YXkOq4lO17gAsWJ2cgE3-10" value="Takes" style="rhombus;whiteSpace=wrap;html=1;rounded=0;" parent="1" vertex="1">
          <mxGeometry x="360" y="690" width="80" height="80" as="geometry" />
        </mxCell>
        <mxCell id="YXkOq4lO17gAsWJ2cgE3-35" value="" style="edgeStyle=orthogonalEdgeStyle;rounded=0;orthogonalLoop=1;jettySize=auto;html=1;" parent="1" source="YXkOq4lO17gAsWJ2cgE3-12" target="YXkOq4lO17gAsWJ2cgE3-34" edge="1">
          <mxGeometry relative="1" as="geometry" />
        </mxCell>
        <mxCell id="YXkOq4lO17gAsWJ2cgE3-84" style="rounded=0;orthogonalLoop=1;jettySize=auto;html=1;exitX=0;exitY=0.5;exitDx=0;exitDy=0;" parent="1" source="YXkOq4lO17gAsWJ2cgE3-12" target="YXkOq4lO17gAsWJ2cgE3-85" edge="1">
          <mxGeometry relative="1" as="geometry">
            <mxPoint x="20" y="891.1428571428573" as="targetPoint" />
          </mxGeometry>
        </mxCell>
        <mxCell id="JEJW3hreMP1SYT_nmHP7-140" style="edgeStyle=orthogonalEdgeStyle;rounded=0;orthogonalLoop=1;jettySize=auto;html=1;exitX=0.25;exitY=1;exitDx=0;exitDy=0;entryX=1;entryY=0;entryDx=0;entryDy=0;" parent="1" source="YXkOq4lO17gAsWJ2cgE3-12" target="JEJW3hreMP1SYT_nmHP7-117" edge="1">
          <mxGeometry relative="1" as="geometry" />
        </mxCell>
        <mxCell id="JEJW3hreMP1SYT_nmHP7-142" style="edgeStyle=orthogonalEdgeStyle;rounded=0;orthogonalLoop=1;jettySize=auto;html=1;exitX=1;exitY=0.5;exitDx=0;exitDy=0;entryX=0.5;entryY=1;entryDx=0;entryDy=0;" parent="1" source="YXkOq4lO17gAsWJ2cgE3-12" target="JEJW3hreMP1SYT_nmHP7-114" edge="1">
          <mxGeometry relative="1" as="geometry" />
        </mxCell>
        <mxCell id="YXkOq4lO17gAsWJ2cgE3-12" value="Sales_Order" style="whiteSpace=wrap;html=1;rounded=0;" parent="1" vertex="1">
          <mxGeometry x="340" y="860" width="120" height="60" as="geometry" />
        </mxCell>
        <mxCell id="YXkOq4lO17gAsWJ2cgE3-14" value="Sales" style="rhombus;whiteSpace=wrap;html=1;rounded=0;" parent="1" vertex="1">
          <mxGeometry x="560" y="550" width="80" height="80" as="geometry" />
        </mxCell>
        <mxCell id="YXkOq4lO17gAsWJ2cgE3-22" value="" style="edgeStyle=orthogonalEdgeStyle;rounded=0;orthogonalLoop=1;jettySize=auto;html=1;" parent="1" source="YXkOq4lO17gAsWJ2cgE3-16" target="YXkOq4lO17gAsWJ2cgE3-21" edge="1">
          <mxGeometry relative="1" as="geometry" />
        </mxCell>
        <mxCell id="JEJW3hreMP1SYT_nmHP7-130" style="edgeStyle=orthogonalEdgeStyle;rounded=0;orthogonalLoop=1;jettySize=auto;html=1;exitX=0.75;exitY=0;exitDx=0;exitDy=0;entryX=0;entryY=1;entryDx=0;entryDy=0;" parent="1" source="YXkOq4lO17gAsWJ2cgE3-16" target="JEJW3hreMP1SYT_nmHP7-128" edge="1">
          <mxGeometry relative="1" as="geometry" />
        </mxCell>
        <mxCell id="JEJW3hreMP1SYT_nmHP7-131" style="edgeStyle=orthogonalEdgeStyle;rounded=0;orthogonalLoop=1;jettySize=auto;html=1;exitX=1;exitY=0.25;exitDx=0;exitDy=0;entryX=0.5;entryY=1;entryDx=0;entryDy=0;endArrow=none;dashed=1;" parent="1" source="YXkOq4lO17gAsWJ2cgE3-16" target="JEJW3hreMP1SYT_nmHP7-115" edge="1">
          <mxGeometry relative="1" as="geometry" />
        </mxCell>
        <mxCell id="JEJW3hreMP1SYT_nmHP7-133" style="edgeStyle=orthogonalEdgeStyle;rounded=0;orthogonalLoop=1;jettySize=auto;html=1;exitX=0;exitY=0.5;exitDx=0;exitDy=0;entryX=0.5;entryY=1;entryDx=0;entryDy=0;" parent="1" source="YXkOq4lO17gAsWJ2cgE3-16" target="JEJW3hreMP1SYT_nmHP7-129" edge="1">
          <mxGeometry relative="1" as="geometry" />
        </mxCell>
        <mxCell id="JEJW3hreMP1SYT_nmHP7-138" style="edgeStyle=orthogonalEdgeStyle;rounded=0;orthogonalLoop=1;jettySize=auto;html=1;exitX=1;exitY=0.75;exitDx=0;exitDy=0;entryX=0.5;entryY=1;entryDx=0;entryDy=0;" parent="1" source="YXkOq4lO17gAsWJ2cgE3-16" target="JEJW3hreMP1SYT_nmHP7-136" edge="1">
          <mxGeometry relative="1" as="geometry" />
        </mxCell>
        <mxCell id="JEJW3hreMP1SYT_nmHP7-139" style="edgeStyle=orthogonalEdgeStyle;rounded=0;orthogonalLoop=1;jettySize=auto;html=1;exitX=0.25;exitY=1;exitDx=0;exitDy=0;entryX=1;entryY=1;entryDx=0;entryDy=0;endArrow=none;dashed=1;" parent="1" source="YXkOq4lO17gAsWJ2cgE3-16" target="JEJW3hreMP1SYT_nmHP7-137" edge="1">
          <mxGeometry relative="1" as="geometry" />
        </mxCell>
        <mxCell id="YXkOq4lO17gAsWJ2cgE3-16" value="Product" style="whiteSpace=wrap;html=1;rounded=0;" parent="1" vertex="1">
          <mxGeometry x="540" y="400" width="120" height="60" as="geometry" />
        </mxCell>
        <mxCell id="YXkOq4lO17gAsWJ2cgE3-20" value="" style="edgeStyle=orthogonalEdgeStyle;rounded=0;orthogonalLoop=1;jettySize=auto;html=1;" parent="1" source="YXkOq4lO17gAsWJ2cgE3-18" target="YXkOq4lO17gAsWJ2cgE3-16" edge="1">
          <mxGeometry relative="1" as="geometry" />
        </mxCell>
        <mxCell id="YXkOq4lO17gAsWJ2cgE3-18" value="Has" style="rhombus;whiteSpace=wrap;html=1;rounded=0;" parent="1" vertex="1">
          <mxGeometry x="560" y="250" width="80" height="80" as="geometry" />
        </mxCell>
        <mxCell id="YXkOq4lO17gAsWJ2cgE3-24" value="" style="edgeStyle=orthogonalEdgeStyle;rounded=0;orthogonalLoop=1;jettySize=auto;html=1;" parent="1" source="YXkOq4lO17gAsWJ2cgE3-21" target="YXkOq4lO17gAsWJ2cgE3-23" edge="1">
          <mxGeometry relative="1" as="geometry" />
        </mxCell>
        <mxCell id="YXkOq4lO17gAsWJ2cgE3-21" value="Has" style="rhombus;whiteSpace=wrap;html=1;rounded=0;" parent="1" vertex="1">
          <mxGeometry x="760" y="390" width="80" height="80" as="geometry" />
        </mxCell>
        <mxCell id="F9omRWPifiJTbMveOKr6-2" style="edgeStyle=orthogonalEdgeStyle;rounded=0;orthogonalLoop=1;jettySize=auto;html=1;exitX=0;exitY=1;exitDx=0;exitDy=0;" parent="1" source="YXkOq4lO17gAsWJ2cgE3-23" target="F9omRWPifiJTbMveOKr6-3" edge="1">
          <mxGeometry relative="1" as="geometry">
            <mxPoint x="840" y="510" as="targetPoint" />
          </mxGeometry>
        </mxCell>
        <mxCell id="F9omRWPifiJTbMveOKr6-6" style="edgeStyle=orthogonalEdgeStyle;rounded=0;orthogonalLoop=1;jettySize=auto;html=1;exitX=0.5;exitY=1;exitDx=0;exitDy=0;entryX=0.5;entryY=0;entryDx=0;entryDy=0;" parent="1" source="YXkOq4lO17gAsWJ2cgE3-23" target="F9omRWPifiJTbMveOKr6-5" edge="1">
          <mxGeometry relative="1" as="geometry" />
        </mxCell>
        <mxCell id="F9omRWPifiJTbMveOKr6-7" style="edgeStyle=orthogonalEdgeStyle;rounded=0;orthogonalLoop=1;jettySize=auto;html=1;exitX=1;exitY=1;exitDx=0;exitDy=0;entryX=0.5;entryY=0;entryDx=0;entryDy=0;" parent="1" source="YXkOq4lO17gAsWJ2cgE3-23" target="F9omRWPifiJTbMveOKr6-8" edge="1">
          <mxGeometry relative="1" as="geometry">
            <mxPoint x="1090" y="480" as="targetPoint" />
          </mxGeometry>
        </mxCell>
        <mxCell id="YXkOq4lO17gAsWJ2cgE3-23" value="Category" style="whiteSpace=wrap;html=1;rounded=0;" parent="1" vertex="1">
          <mxGeometry x="900" y="400" width="120" height="60" as="geometry" />
        </mxCell>
        <mxCell id="YXkOq4lO17gAsWJ2cgE3-28" value="" style="edgeStyle=orthogonalEdgeStyle;rounded=0;orthogonalLoop=1;jettySize=auto;html=1;" parent="1" source="YXkOq4lO17gAsWJ2cgE3-25" target="YXkOq4lO17gAsWJ2cgE3-27" edge="1">
          <mxGeometry relative="1" as="geometry" />
        </mxCell>
        <mxCell id="YXkOq4lO17gAsWJ2cgE3-25" value="Places" style="rhombus;whiteSpace=wrap;html=1;rounded=0;" parent="1" vertex="1">
          <mxGeometry x="360" y="110" width="80" height="80" as="geometry" />
        </mxCell>
        <mxCell id="JEJW3hreMP1SYT_nmHP7-80" style="edgeStyle=orthogonalEdgeStyle;rounded=0;orthogonalLoop=1;jettySize=auto;html=1;exitX=0.25;exitY=0;exitDx=0;exitDy=0;entryX=0.5;entryY=1;entryDx=0;entryDy=0;" parent="1" source="YXkOq4lO17gAsWJ2cgE3-27" target="JEJW3hreMP1SYT_nmHP7-79" edge="1">
          <mxGeometry relative="1" as="geometry" />
        </mxCell>
        <mxCell id="YXkOq4lO17gAsWJ2cgE3-27" value="Orders" style="whiteSpace=wrap;html=1;rounded=0;" parent="1" vertex="1">
          <mxGeometry x="180" y="120" width="120" height="60" as="geometry" />
        </mxCell>
        <mxCell id="JEJW3hreMP1SYT_nmHP7-61" style="edgeStyle=orthogonalEdgeStyle;rounded=0;orthogonalLoop=1;jettySize=auto;html=1;exitX=0;exitY=0.5;exitDx=0;exitDy=0;entryX=1;entryY=0;entryDx=0;entryDy=0;" parent="1" source="YXkOq4lO17gAsWJ2cgE3-32" target="JEJW3hreMP1SYT_nmHP7-41" edge="1">
          <mxGeometry relative="1" as="geometry" />
        </mxCell>
        <mxCell id="JEJW3hreMP1SYT_nmHP7-62" style="edgeStyle=orthogonalEdgeStyle;rounded=0;orthogonalLoop=1;jettySize=auto;html=1;exitX=0;exitY=1;exitDx=0;exitDy=0;entryX=1;entryY=0.5;entryDx=0;entryDy=0;" parent="1" source="YXkOq4lO17gAsWJ2cgE3-32" target="JEJW3hreMP1SYT_nmHP7-37" edge="1">
          <mxGeometry relative="1" as="geometry" />
        </mxCell>
        <mxCell id="JEJW3hreMP1SYT_nmHP7-63" style="edgeStyle=orthogonalEdgeStyle;rounded=0;orthogonalLoop=1;jettySize=auto;html=1;exitX=1;exitY=0.5;exitDx=0;exitDy=0;" parent="1" source="YXkOq4lO17gAsWJ2cgE3-32" target="JEJW3hreMP1SYT_nmHP7-60" edge="1">
          <mxGeometry relative="1" as="geometry" />
        </mxCell>
        <mxCell id="YXkOq4lO17gAsWJ2cgE3-32" value="Customer" style="whiteSpace=wrap;html=1;rounded=0;" parent="1" vertex="1">
          <mxGeometry x="140" y="720" width="120" height="60" as="geometry" />
        </mxCell>
        <mxCell id="YXkOq4lO17gAsWJ2cgE3-36" style="edgeStyle=orthogonalEdgeStyle;rounded=0;orthogonalLoop=1;jettySize=auto;html=1;exitX=0;exitY=0.5;exitDx=0;exitDy=0;entryX=0.5;entryY=1;entryDx=0;entryDy=0;" parent="1" source="YXkOq4lO17gAsWJ2cgE3-34" target="YXkOq4lO17gAsWJ2cgE3-32" edge="1">
          <mxGeometry relative="1" as="geometry" />
        </mxCell>
        <mxCell id="YXkOq4lO17gAsWJ2cgE3-34" value="From" style="rhombus;whiteSpace=wrap;html=1;rounded=0;" parent="1" vertex="1">
          <mxGeometry x="360" y="990" width="80" height="80" as="geometry" />
        </mxCell>
        <mxCell id="YXkOq4lO17gAsWJ2cgE3-42" value="" style="edgeStyle=orthogonalEdgeStyle;rounded=0;orthogonalLoop=1;jettySize=auto;html=1;" parent="1" source="YXkOq4lO17gAsWJ2cgE3-39" target="YXkOq4lO17gAsWJ2cgE3-41" edge="1">
          <mxGeometry relative="1" as="geometry" />
        </mxCell>
        <mxCell id="YXkOq4lO17gAsWJ2cgE3-39" value="Gives" style="rhombus;whiteSpace=wrap;html=1;rounded=0;" parent="1" vertex="1">
          <mxGeometry x="160" y="550" width="80" height="80" as="geometry" />
        </mxCell>
        <mxCell id="YXkOq4lO17gAsWJ2cgE3-48" value="" style="edgeStyle=orthogonalEdgeStyle;rounded=0;orthogonalLoop=1;jettySize=auto;html=1;" parent="1" source="YXkOq4lO17gAsWJ2cgE3-41" target="YXkOq4lO17gAsWJ2cgE3-47" edge="1">
          <mxGeometry relative="1" as="geometry" />
        </mxCell>
        <mxCell id="JEJW3hreMP1SYT_nmHP7-108" style="edgeStyle=orthogonalEdgeStyle;rounded=0;orthogonalLoop=1;jettySize=auto;html=1;exitX=0;exitY=0;exitDx=0;exitDy=0;entryX=1;entryY=1;entryDx=0;entryDy=0;" parent="1" source="YXkOq4lO17gAsWJ2cgE3-41" target="JEJW3hreMP1SYT_nmHP7-95" edge="1">
          <mxGeometry relative="1" as="geometry" />
        </mxCell>
        <mxCell id="JEJW3hreMP1SYT_nmHP7-109" style="edgeStyle=orthogonalEdgeStyle;rounded=0;orthogonalLoop=1;jettySize=auto;html=1;exitX=0;exitY=0.75;exitDx=0;exitDy=0;entryX=0.5;entryY=0;entryDx=0;entryDy=0;" parent="1" source="YXkOq4lO17gAsWJ2cgE3-41" target="JEJW3hreMP1SYT_nmHP7-96" edge="1">
          <mxGeometry relative="1" as="geometry" />
        </mxCell>
        <mxCell id="JEJW3hreMP1SYT_nmHP7-111" style="edgeStyle=orthogonalEdgeStyle;rounded=0;orthogonalLoop=1;jettySize=auto;html=1;exitX=0.75;exitY=0;exitDx=0;exitDy=0;entryX=0.5;entryY=1;entryDx=0;entryDy=0;endArrow=none;dashed=1;" parent="1" source="YXkOq4lO17gAsWJ2cgE3-41" target="JEJW3hreMP1SYT_nmHP7-110" edge="1">
          <mxGeometry relative="1" as="geometry" />
        </mxCell>
        <mxCell id="YXkOq4lO17gAsWJ2cgE3-41" value="Purchase_Order" style="whiteSpace=wrap;html=1;rounded=0;" parent="1" vertex="1">
          <mxGeometry x="-20" y="560" width="120" height="60" as="geometry" />
        </mxCell>
        <mxCell id="YXkOq4lO17gAsWJ2cgE3-46" value="" style="edgeStyle=orthogonalEdgeStyle;rounded=0;orthogonalLoop=1;jettySize=auto;html=1;" parent="1" source="YXkOq4lO17gAsWJ2cgE3-43" target="YXkOq4lO17gAsWJ2cgE3-45" edge="1">
          <mxGeometry relative="1" as="geometry" />
        </mxCell>
        <mxCell id="YXkOq4lO17gAsWJ2cgE3-43" value="Has" style="rhombus;whiteSpace=wrap;html=1;rounded=0;" parent="1" vertex="1">
          <mxGeometry x="-200" y="550" width="80" height="80" as="geometry" />
        </mxCell>
        <mxCell id="JEJW3hreMP1SYT_nmHP7-97" style="edgeStyle=orthogonalEdgeStyle;rounded=0;orthogonalLoop=1;jettySize=auto;html=1;exitX=0.5;exitY=0;exitDx=0;exitDy=0;entryX=0.5;entryY=1;entryDx=0;entryDy=0;" parent="1" source="YXkOq4lO17gAsWJ2cgE3-45" target="JEJW3hreMP1SYT_nmHP7-39" edge="1">
          <mxGeometry relative="1" as="geometry" />
        </mxCell>
        <mxCell id="JEJW3hreMP1SYT_nmHP7-98" style="edgeStyle=orthogonalEdgeStyle;rounded=0;orthogonalLoop=1;jettySize=auto;html=1;exitX=0;exitY=0;exitDx=0;exitDy=0;entryX=1;entryY=0.5;entryDx=0;entryDy=0;endArrow=none;dashed=1;" parent="1" source="YXkOq4lO17gAsWJ2cgE3-45" target="JEJW3hreMP1SYT_nmHP7-94" edge="1">
          <mxGeometry relative="1" as="geometry" />
        </mxCell>
        <mxCell id="JEJW3hreMP1SYT_nmHP7-99" style="edgeStyle=orthogonalEdgeStyle;rounded=0;orthogonalLoop=1;jettySize=auto;html=1;exitX=0;exitY=0.5;exitDx=0;exitDy=0;entryX=1;entryY=0.5;entryDx=0;entryDy=0;endArrow=none;dashed=1;" parent="1" source="YXkOq4lO17gAsWJ2cgE3-45" target="JEJW3hreMP1SYT_nmHP7-40" edge="1">
          <mxGeometry relative="1" as="geometry" />
        </mxCell>
        <mxCell id="JEJW3hreMP1SYT_nmHP7-100" style="edgeStyle=orthogonalEdgeStyle;rounded=0;orthogonalLoop=1;jettySize=auto;html=1;exitX=0.5;exitY=1;exitDx=0;exitDy=0;entryX=0.5;entryY=0;entryDx=0;entryDy=0;" parent="1" source="YXkOq4lO17gAsWJ2cgE3-45" target="JEJW3hreMP1SYT_nmHP7-93" edge="1">
          <mxGeometry relative="1" as="geometry" />
        </mxCell>
        <mxCell id="YXkOq4lO17gAsWJ2cgE3-45" value="Purchase_order_Item" style="whiteSpace=wrap;html=1;rounded=0;" parent="1" vertex="1">
          <mxGeometry x="-380" y="560" width="120" height="60" as="geometry" />
        </mxCell>
        <mxCell id="YXkOq4lO17gAsWJ2cgE3-49" style="edgeStyle=orthogonalEdgeStyle;rounded=0;orthogonalLoop=1;jettySize=auto;html=1;exitX=1;exitY=0.5;exitDx=0;exitDy=0;entryX=0;entryY=1;entryDx=0;entryDy=0;" parent="1" source="YXkOq4lO17gAsWJ2cgE3-47" target="YXkOq4lO17gAsWJ2cgE3-4" edge="1">
          <mxGeometry relative="1" as="geometry" />
        </mxCell>
        <mxCell id="YXkOq4lO17gAsWJ2cgE3-47" value="To" style="rhombus;whiteSpace=wrap;html=1;rounded=0;" parent="1" vertex="1">
          <mxGeometry y="410" width="80" height="80" as="geometry" />
        </mxCell>
        <mxCell id="YXkOq4lO17gAsWJ2cgE3-56" value="" style="edgeStyle=orthogonalEdgeStyle;rounded=0;orthogonalLoop=1;jettySize=auto;html=1;" parent="1" source="YXkOq4lO17gAsWJ2cgE3-53" target="YXkOq4lO17gAsWJ2cgE3-55" edge="1">
          <mxGeometry relative="1" as="geometry" />
        </mxCell>
        <mxCell id="YXkOq4lO17gAsWJ2cgE3-53" value="Has" style="rhombus;whiteSpace=wrap;html=1;rounded=0;" parent="1" vertex="1">
          <mxGeometry x="200" y="-30" width="80" height="80" as="geometry" />
        </mxCell>
        <mxCell id="JEJW3hreMP1SYT_nmHP7-75" style="edgeStyle=orthogonalEdgeStyle;rounded=0;orthogonalLoop=1;jettySize=auto;html=1;exitX=0;exitY=0.5;exitDx=0;exitDy=0;entryX=1;entryY=0.5;entryDx=0;entryDy=0;endArrow=none;dashed=1;" parent="1" source="YXkOq4lO17gAsWJ2cgE3-55" target="JEJW3hreMP1SYT_nmHP7-29" edge="1">
          <mxGeometry relative="1" as="geometry" />
        </mxCell>
        <mxCell id="JEJW3hreMP1SYT_nmHP7-76" style="edgeStyle=orthogonalEdgeStyle;rounded=0;orthogonalLoop=1;jettySize=auto;html=1;exitX=0.5;exitY=0;exitDx=0;exitDy=0;entryX=0.5;entryY=1;entryDx=0;entryDy=0;" parent="1" source="YXkOq4lO17gAsWJ2cgE3-55" target="JEJW3hreMP1SYT_nmHP7-34" edge="1">
          <mxGeometry relative="1" as="geometry" />
        </mxCell>
        <mxCell id="JEJW3hreMP1SYT_nmHP7-77" style="edgeStyle=orthogonalEdgeStyle;rounded=0;orthogonalLoop=1;jettySize=auto;html=1;exitX=1;exitY=0.5;exitDx=0;exitDy=0;endArrow=none;dashed=1;" parent="1" source="YXkOq4lO17gAsWJ2cgE3-55" target="JEJW3hreMP1SYT_nmHP7-35" edge="1">
          <mxGeometry relative="1" as="geometry" />
        </mxCell>
        <mxCell id="JEJW3hreMP1SYT_nmHP7-78" style="edgeStyle=orthogonalEdgeStyle;rounded=0;orthogonalLoop=1;jettySize=auto;html=1;exitX=0;exitY=1;exitDx=0;exitDy=0;entryX=1;entryY=0;entryDx=0;entryDy=0;" parent="1" source="YXkOq4lO17gAsWJ2cgE3-55" target="JEJW3hreMP1SYT_nmHP7-33" edge="1">
          <mxGeometry relative="1" as="geometry" />
        </mxCell>
        <mxCell id="YXkOq4lO17gAsWJ2cgE3-55" value="Order_item" style="whiteSpace=wrap;html=1;rounded=0;" parent="1" vertex="1">
          <mxGeometry x="180" y="-180" width="120" height="60" as="geometry" />
        </mxCell>
        <mxCell id="YXkOq4lO17gAsWJ2cgE3-63" style="edgeStyle=orthogonalEdgeStyle;rounded=0;orthogonalLoop=1;jettySize=auto;html=1;exitX=1;exitY=0;exitDx=0;exitDy=0;" parent="1" source="YXkOq4lO17gAsWJ2cgE3-59" edge="1">
          <mxGeometry relative="1" as="geometry">
            <mxPoint x="730.0769230769233" y="780" as="targetPoint" />
          </mxGeometry>
        </mxCell>
        <mxCell id="YXkOq4lO17gAsWJ2cgE3-59" value="manages" style="rhombus;whiteSpace=wrap;html=1;" parent="1" vertex="1">
          <mxGeometry x="620" y="800" width="80" height="80" as="geometry" />
        </mxCell>
        <mxCell id="YXkOq4lO17gAsWJ2cgE3-67" value="" style="edgeStyle=orthogonalEdgeStyle;rounded=0;orthogonalLoop=1;jettySize=auto;html=1;" parent="1" source="YXkOq4lO17gAsWJ2cgE3-60" target="YXkOq4lO17gAsWJ2cgE3-66" edge="1">
          <mxGeometry relative="1" as="geometry" />
        </mxCell>
        <mxCell id="YXkOq4lO17gAsWJ2cgE3-72" style="edgeStyle=orthogonalEdgeStyle;rounded=0;orthogonalLoop=1;jettySize=auto;html=1;exitX=0.5;exitY=1;exitDx=0;exitDy=0;entryX=1;entryY=0.5;entryDx=0;entryDy=0;" parent="1" source="YXkOq4lO17gAsWJ2cgE3-60" target="YXkOq4lO17gAsWJ2cgE3-10" edge="1">
          <mxGeometry relative="1" as="geometry">
            <Array as="points">
              <mxPoint x="820" y="960" />
              <mxPoint x="600" y="960" />
              <mxPoint x="600" y="730" />
            </Array>
          </mxGeometry>
        </mxCell>
        <mxCell id="JEJW3hreMP1SYT_nmHP7-70" style="edgeStyle=orthogonalEdgeStyle;rounded=0;orthogonalLoop=1;jettySize=auto;html=1;exitX=0.25;exitY=1;exitDx=0;exitDy=0;entryX=1;entryY=0.5;entryDx=0;entryDy=0;" parent="1" source="YXkOq4lO17gAsWJ2cgE3-60" target="JEJW3hreMP1SYT_nmHP7-66" edge="1">
          <mxGeometry relative="1" as="geometry" />
        </mxCell>
        <mxCell id="JEJW3hreMP1SYT_nmHP7-71" style="edgeStyle=orthogonalEdgeStyle;rounded=0;orthogonalLoop=1;jettySize=auto;html=1;exitX=0.75;exitY=1;exitDx=0;exitDy=0;entryX=0;entryY=0.5;entryDx=0;entryDy=0;endArrow=none;dashed=1;" parent="1" source="YXkOq4lO17gAsWJ2cgE3-60" target="JEJW3hreMP1SYT_nmHP7-64" edge="1">
          <mxGeometry relative="1" as="geometry" />
        </mxCell>
        <mxCell id="JEJW3hreMP1SYT_nmHP7-74" style="edgeStyle=orthogonalEdgeStyle;rounded=0;orthogonalLoop=1;jettySize=auto;html=1;exitX=1;exitY=0.75;exitDx=0;exitDy=0;entryX=1;entryY=0.5;entryDx=0;entryDy=0;" parent="1" source="YXkOq4lO17gAsWJ2cgE3-60" target="JEJW3hreMP1SYT_nmHP7-69" edge="1">
          <mxGeometry relative="1" as="geometry" />
        </mxCell>
        <mxCell id="YXkOq4lO17gAsWJ2cgE3-60" value="Inventory" style="whiteSpace=wrap;html=1;" parent="1" vertex="1">
          <mxGeometry x="760" y="810" width="120" height="60" as="geometry" />
        </mxCell>
        <mxCell id="YXkOq4lO17gAsWJ2cgE3-69" style="edgeStyle=orthogonalEdgeStyle;rounded=0;orthogonalLoop=1;jettySize=auto;html=1;exitX=1;exitY=0.5;exitDx=0;exitDy=0;entryX=0;entryY=0;entryDx=0;entryDy=0;" parent="1" source="YXkOq4lO17gAsWJ2cgE3-65" target="YXkOq4lO17gAsWJ2cgE3-66" edge="1">
          <mxGeometry relative="1" as="geometry" />
        </mxCell>
        <mxCell id="YXkOq4lO17gAsWJ2cgE3-74" style="edgeStyle=orthogonalEdgeStyle;rounded=0;orthogonalLoop=1;jettySize=auto;html=1;exitX=0.5;exitY=0;exitDx=0;exitDy=0;" parent="1" source="YXkOq4lO17gAsWJ2cgE3-65" target="YXkOq4lO17gAsWJ2cgE3-75" edge="1">
          <mxGeometry relative="1" as="geometry">
            <mxPoint x="1160" y="480" as="targetPoint" />
          </mxGeometry>
        </mxCell>
        <mxCell id="JEJW3hreMP1SYT_nmHP7-125" style="edgeStyle=orthogonalEdgeStyle;rounded=0;orthogonalLoop=1;jettySize=auto;html=1;exitX=0;exitY=0;exitDx=0;exitDy=0;entryX=0.5;entryY=1;entryDx=0;entryDy=0;" parent="1" source="YXkOq4lO17gAsWJ2cgE3-65" target="JEJW3hreMP1SYT_nmHP7-123" edge="1">
          <mxGeometry relative="1" as="geometry" />
        </mxCell>
        <mxCell id="JEJW3hreMP1SYT_nmHP7-126" style="edgeStyle=orthogonalEdgeStyle;rounded=0;orthogonalLoop=1;jettySize=auto;html=1;exitX=0.75;exitY=0;exitDx=0;exitDy=0;entryX=0.5;entryY=1;entryDx=0;entryDy=0;" parent="1" source="YXkOq4lO17gAsWJ2cgE3-65" target="JEJW3hreMP1SYT_nmHP7-124" edge="1">
          <mxGeometry relative="1" as="geometry" />
        </mxCell>
        <mxCell id="JEJW3hreMP1SYT_nmHP7-127" style="edgeStyle=orthogonalEdgeStyle;rounded=0;orthogonalLoop=1;jettySize=auto;html=1;exitX=1;exitY=0.25;exitDx=0;exitDy=0;entryX=0.5;entryY=1;entryDx=0;entryDy=0;" parent="1" source="YXkOq4lO17gAsWJ2cgE3-65" target="JEJW3hreMP1SYT_nmHP7-112" edge="1">
          <mxGeometry relative="1" as="geometry" />
        </mxCell>
        <mxCell id="YXkOq4lO17gAsWJ2cgE3-65" value="Warehouse" style="rounded=0;whiteSpace=wrap;html=1;" parent="1" vertex="1">
          <mxGeometry x="680" y="720" width="120" height="60" as="geometry" />
        </mxCell>
        <mxCell id="YXkOq4lO17gAsWJ2cgE3-68" style="edgeStyle=orthogonalEdgeStyle;rounded=0;orthogonalLoop=1;jettySize=auto;html=1;exitX=0.5;exitY=0;exitDx=0;exitDy=0;entryX=1;entryY=1;entryDx=0;entryDy=0;" parent="1" source="YXkOq4lO17gAsWJ2cgE3-66" target="YXkOq4lO17gAsWJ2cgE3-16" edge="1">
          <mxGeometry relative="1" as="geometry" />
        </mxCell>
        <mxCell id="YXkOq4lO17gAsWJ2cgE3-66" value="Stores" style="rhombus;whiteSpace=wrap;html=1;" parent="1" vertex="1">
          <mxGeometry x="980" y="800" width="80" height="80" as="geometry" />
        </mxCell>
        <mxCell id="YXkOq4lO17gAsWJ2cgE3-77" value="" style="edgeStyle=orthogonalEdgeStyle;rounded=0;orthogonalLoop=1;jettySize=auto;html=1;" parent="1" source="YXkOq4lO17gAsWJ2cgE3-75" target="YXkOq4lO17gAsWJ2cgE3-76" edge="1">
          <mxGeometry relative="1" as="geometry" />
        </mxCell>
        <mxCell id="YXkOq4lO17gAsWJ2cgE3-75" value="Has" style="rhombus;whiteSpace=wrap;html=1;" parent="1" vertex="1">
          <mxGeometry x="1120" y="440" width="80" height="80" as="geometry" />
        </mxCell>
        <mxCell id="YXkOq4lO17gAsWJ2cgE3-79" value="" style="edgeStyle=orthogonalEdgeStyle;rounded=0;orthogonalLoop=1;jettySize=auto;html=1;" parent="1" source="YXkOq4lO17gAsWJ2cgE3-76" target="YXkOq4lO17gAsWJ2cgE3-78" edge="1">
          <mxGeometry relative="1" as="geometry" />
        </mxCell>
        <mxCell id="JEJW3hreMP1SYT_nmHP7-104" style="edgeStyle=orthogonalEdgeStyle;rounded=0;orthogonalLoop=1;jettySize=auto;html=1;exitX=0.5;exitY=0;exitDx=0;exitDy=0;entryX=0.5;entryY=1;entryDx=0;entryDy=0;" parent="1" source="YXkOq4lO17gAsWJ2cgE3-76" target="JEJW3hreMP1SYT_nmHP7-46" edge="1">
          <mxGeometry relative="1" as="geometry" />
        </mxCell>
        <mxCell id="JEJW3hreMP1SYT_nmHP7-105" style="edgeStyle=orthogonalEdgeStyle;rounded=0;orthogonalLoop=1;jettySize=auto;html=1;exitX=1;exitY=0.25;exitDx=0;exitDy=0;entryX=0;entryY=1;entryDx=0;entryDy=0;" parent="1" source="YXkOq4lO17gAsWJ2cgE3-76" target="JEJW3hreMP1SYT_nmHP7-47" edge="1">
          <mxGeometry relative="1" as="geometry" />
        </mxCell>
        <mxCell id="JEJW3hreMP1SYT_nmHP7-106" style="edgeStyle=orthogonalEdgeStyle;rounded=0;orthogonalLoop=1;jettySize=auto;html=1;exitX=1;exitY=0.5;exitDx=0;exitDy=0;entryX=0;entryY=0.5;entryDx=0;entryDy=0;" parent="1" source="YXkOq4lO17gAsWJ2cgE3-76" target="JEJW3hreMP1SYT_nmHP7-48" edge="1">
          <mxGeometry relative="1" as="geometry" />
        </mxCell>
        <mxCell id="JEJW3hreMP1SYT_nmHP7-107" style="edgeStyle=orthogonalEdgeStyle;rounded=0;orthogonalLoop=1;jettySize=auto;html=1;exitX=1;exitY=1;exitDx=0;exitDy=0;entryX=0;entryY=0;entryDx=0;entryDy=0;" parent="1" source="YXkOq4lO17gAsWJ2cgE3-76" target="JEJW3hreMP1SYT_nmHP7-101" edge="1">
          <mxGeometry relative="1" as="geometry" />
        </mxCell>
        <mxCell id="YXkOq4lO17gAsWJ2cgE3-76" value="Location" style="whiteSpace=wrap;html=1;" parent="1" vertex="1">
          <mxGeometry x="1100" y="290" width="120" height="60" as="geometry" />
        </mxCell>
        <mxCell id="YXkOq4lO17gAsWJ2cgE3-80" style="edgeStyle=orthogonalEdgeStyle;rounded=0;orthogonalLoop=1;jettySize=auto;html=1;exitX=0;exitY=0.5;exitDx=0;exitDy=0;entryX=1;entryY=0;entryDx=0;entryDy=0;" parent="1" source="YXkOq4lO17gAsWJ2cgE3-78" target="YXkOq4lO17gAsWJ2cgE3-16" edge="1">
          <mxGeometry relative="1" as="geometry" />
        </mxCell>
        <mxCell id="YXkOq4lO17gAsWJ2cgE3-78" value="of" style="rhombus;whiteSpace=wrap;html=1;" parent="1" vertex="1">
          <mxGeometry x="920" y="280" width="80" height="80" as="geometry" />
        </mxCell>
        <mxCell id="YXkOq4lO17gAsWJ2cgE3-87" value="" style="edgeStyle=orthogonalEdgeStyle;rounded=0;orthogonalLoop=1;jettySize=auto;html=1;" parent="1" source="YXkOq4lO17gAsWJ2cgE3-85" target="YXkOq4lO17gAsWJ2cgE3-86" edge="1">
          <mxGeometry relative="1" as="geometry" />
        </mxCell>
        <mxCell id="YXkOq4lO17gAsWJ2cgE3-85" value="Has" style="rhombus;whiteSpace=wrap;html=1;" parent="1" vertex="1">
          <mxGeometry x="-20" y="851.1428571428573" width="80" height="80" as="geometry" />
        </mxCell>
        <mxCell id="JEJW3hreMP1SYT_nmHP7-54" style="edgeStyle=orthogonalEdgeStyle;rounded=0;orthogonalLoop=1;jettySize=auto;html=1;exitX=0;exitY=0.5;exitDx=0;exitDy=0;entryX=1;entryY=0.5;entryDx=0;entryDy=0;" parent="1" source="YXkOq4lO17gAsWJ2cgE3-86" target="JEJW3hreMP1SYT_nmHP7-52" edge="1">
          <mxGeometry relative="1" as="geometry" />
        </mxCell>
        <mxCell id="JEJW3hreMP1SYT_nmHP7-56" style="edgeStyle=orthogonalEdgeStyle;rounded=0;orthogonalLoop=1;jettySize=auto;html=1;exitX=0;exitY=0;exitDx=0;exitDy=0;entryX=1;entryY=0.5;entryDx=0;entryDy=0;endArrow=none;dashed=1;" parent="1" source="YXkOq4lO17gAsWJ2cgE3-86" target="JEJW3hreMP1SYT_nmHP7-51" edge="1">
          <mxGeometry relative="1" as="geometry" />
        </mxCell>
        <mxCell id="JEJW3hreMP1SYT_nmHP7-57" style="edgeStyle=orthogonalEdgeStyle;rounded=0;orthogonalLoop=1;jettySize=auto;html=1;exitX=0;exitY=1;exitDx=0;exitDy=0;entryX=0.5;entryY=0;entryDx=0;entryDy=0;endArrow=none;dashed=1;" parent="1" source="YXkOq4lO17gAsWJ2cgE3-86" target="JEJW3hreMP1SYT_nmHP7-50" edge="1">
          <mxGeometry relative="1" as="geometry" />
        </mxCell>
        <mxCell id="JEJW3hreMP1SYT_nmHP7-58" style="edgeStyle=orthogonalEdgeStyle;rounded=0;orthogonalLoop=1;jettySize=auto;html=1;exitX=0.5;exitY=1;exitDx=0;exitDy=0;entryX=0.5;entryY=0;entryDx=0;entryDy=0;" parent="1" source="YXkOq4lO17gAsWJ2cgE3-86" target="JEJW3hreMP1SYT_nmHP7-49" edge="1">
          <mxGeometry relative="1" as="geometry" />
        </mxCell>
        <mxCell id="YXkOq4lO17gAsWJ2cgE3-86" value="Sales_Order_item" style="whiteSpace=wrap;html=1;" parent="1" vertex="1">
          <mxGeometry x="-200" y="861.1428571428573" width="120" height="60" as="geometry" />
        </mxCell>
        <mxCell id="F9omRWPifiJTbMveOKr6-3" value="&lt;u&gt;Category_id&lt;/u&gt;" style="ellipse;whiteSpace=wrap;html=1;" parent="1" vertex="1">
          <mxGeometry x="780" y="470" width="100" height="50" as="geometry" />
        </mxCell>
        <mxCell id="F9omRWPifiJTbMveOKr6-5" value="name" style="ellipse;whiteSpace=wrap;html=1;" parent="1" vertex="1">
          <mxGeometry x="900" y="510" width="120" height="50" as="geometry" />
        </mxCell>
        <mxCell id="F9omRWPifiJTbMveOKr6-8" value="description" style="ellipse;whiteSpace=wrap;html=1;" parent="1" vertex="1">
          <mxGeometry x="1030" y="490" width="100" height="50" as="geometry" />
        </mxCell>
        <mxCell id="JEJW3hreMP1SYT_nmHP7-5" value="" style="endArrow=none;html=1;rounded=0;exitX=0.5;exitY=0;exitDx=0;exitDy=0;entryX=0.5;entryY=1;entryDx=0;entryDy=0;" parent="1" source="YXkOq4lO17gAsWJ2cgE3-6" target="YXkOq4lO17gAsWJ2cgE3-4" edge="1">
          <mxGeometry width="50" height="50" relative="1" as="geometry">
            <mxPoint x="380" y="380" as="sourcePoint" />
            <mxPoint x="430" y="330" as="targetPoint" />
          </mxGeometry>
        </mxCell>
        <mxCell id="JEJW3hreMP1SYT_nmHP7-7" value="" style="endArrow=none;html=1;rounded=0;entryX=0.5;entryY=1;entryDx=0;entryDy=0;exitX=0.5;exitY=0;exitDx=0;exitDy=0;" parent="1" source="YXkOq4lO17gAsWJ2cgE3-10" target="YXkOq4lO17gAsWJ2cgE3-8" edge="1">
          <mxGeometry width="50" height="50" relative="1" as="geometry">
            <mxPoint x="380" y="680" as="sourcePoint" />
            <mxPoint x="430" y="630" as="targetPoint" />
          </mxGeometry>
        </mxCell>
        <mxCell id="JEJW3hreMP1SYT_nmHP7-8" value="" style="endArrow=none;html=1;rounded=0;entryX=0.5;entryY=1;entryDx=0;entryDy=0;exitX=0.5;exitY=0;exitDx=0;exitDy=0;" parent="1" source="YXkOq4lO17gAsWJ2cgE3-12" target="YXkOq4lO17gAsWJ2cgE3-10" edge="1">
          <mxGeometry width="50" height="50" relative="1" as="geometry">
            <mxPoint x="370" y="840" as="sourcePoint" />
            <mxPoint x="420" y="790" as="targetPoint" />
          </mxGeometry>
        </mxCell>
        <mxCell id="JEJW3hreMP1SYT_nmHP7-9" value="" style="endArrow=none;html=1;rounded=0;entryX=0;entryY=0.5;entryDx=0;entryDy=0;exitX=1;exitY=0.5;exitDx=0;exitDy=0;" parent="1" source="YXkOq4lO17gAsWJ2cgE3-8" target="YXkOq4lO17gAsWJ2cgE3-14" edge="1">
          <mxGeometry width="50" height="50" relative="1" as="geometry">
            <mxPoint x="480" y="630" as="sourcePoint" />
            <mxPoint x="530" y="580" as="targetPoint" />
          </mxGeometry>
        </mxCell>
        <mxCell id="JEJW3hreMP1SYT_nmHP7-10" value="" style="endArrow=none;html=1;rounded=0;entryX=0.5;entryY=1;entryDx=0;entryDy=0;exitX=0.5;exitY=0;exitDx=0;exitDy=0;" parent="1" source="YXkOq4lO17gAsWJ2cgE3-14" target="YXkOq4lO17gAsWJ2cgE3-16" edge="1">
          <mxGeometry width="50" height="50" relative="1" as="geometry">
            <mxPoint x="570" y="540" as="sourcePoint" />
            <mxPoint x="620" y="490" as="targetPoint" />
          </mxGeometry>
        </mxCell>
        <mxCell id="JEJW3hreMP1SYT_nmHP7-11" value="" style="endArrow=none;html=1;rounded=0;entryX=0;entryY=0.5;entryDx=0;entryDy=0;exitX=1;exitY=0.5;exitDx=0;exitDy=0;" parent="1" source="YXkOq4lO17gAsWJ2cgE3-1" target="YXkOq4lO17gAsWJ2cgE3-2" edge="1">
          <mxGeometry width="50" height="50" relative="1" as="geometry">
            <mxPoint x="120" y="320" as="sourcePoint" />
            <mxPoint x="170" y="270" as="targetPoint" />
          </mxGeometry>
        </mxCell>
        <mxCell id="JEJW3hreMP1SYT_nmHP7-12" value="" style="endArrow=none;html=1;rounded=0;exitX=0.5;exitY=0;exitDx=0;exitDy=0;entryX=0.5;entryY=1;entryDx=0;entryDy=0;" parent="1" source="YXkOq4lO17gAsWJ2cgE3-4" target="YXkOq4lO17gAsWJ2cgE3-25" edge="1">
          <mxGeometry width="50" height="50" relative="1" as="geometry">
            <mxPoint x="460" y="130" as="sourcePoint" />
            <mxPoint x="510" y="80" as="targetPoint" />
          </mxGeometry>
        </mxCell>
        <mxCell id="JEJW3hreMP1SYT_nmHP7-14" value="Given" style="rhombus;whiteSpace=wrap;html=1;" parent="1" vertex="1">
          <mxGeometry y="110" width="80" height="80" as="geometry" />
        </mxCell>
        <mxCell id="JEJW3hreMP1SYT_nmHP7-16" value="" style="endArrow=none;html=1;rounded=0;entryX=0.5;entryY=1;entryDx=0;entryDy=0;exitX=0.5;exitY=0;exitDx=0;exitDy=0;" parent="1" source="YXkOq4lO17gAsWJ2cgE3-1" target="JEJW3hreMP1SYT_nmHP7-14" edge="1">
          <mxGeometry width="50" height="50" relative="1" as="geometry">
            <mxPoint x="10" y="250" as="sourcePoint" />
            <mxPoint x="60" y="200" as="targetPoint" />
          </mxGeometry>
        </mxCell>
        <mxCell id="JEJW3hreMP1SYT_nmHP7-17" value="" style="endArrow=classic;html=1;rounded=0;exitX=1;exitY=0.5;exitDx=0;exitDy=0;entryX=0;entryY=0.5;entryDx=0;entryDy=0;" parent="1" source="JEJW3hreMP1SYT_nmHP7-14" target="YXkOq4lO17gAsWJ2cgE3-27" edge="1">
          <mxGeometry width="50" height="50" relative="1" as="geometry">
            <mxPoint x="90" y="150" as="sourcePoint" />
            <mxPoint x="170" y="150" as="targetPoint" />
          </mxGeometry>
        </mxCell>
        <mxCell id="JEJW3hreMP1SYT_nmHP7-19" value="" style="endArrow=classic;html=1;rounded=0;exitX=0.5;exitY=1;exitDx=0;exitDy=0;entryX=0.5;entryY=0;entryDx=0;entryDy=0;" parent="1" source="YXkOq4lO17gAsWJ2cgE3-53" target="YXkOq4lO17gAsWJ2cgE3-27" edge="1">
          <mxGeometry width="50" height="50" relative="1" as="geometry">
            <mxPoint x="460" y="60" as="sourcePoint" />
            <mxPoint x="510" y="10" as="targetPoint" />
          </mxGeometry>
        </mxCell>
        <mxCell id="JEJW3hreMP1SYT_nmHP7-20" value="" style="endArrow=none;html=1;rounded=0;entryX=0;entryY=0.5;entryDx=0;entryDy=0;exitX=1;exitY=0.5;exitDx=0;exitDy=0;" parent="1" source="YXkOq4lO17gAsWJ2cgE3-4" target="YXkOq4lO17gAsWJ2cgE3-18" edge="1">
          <mxGeometry width="50" height="50" relative="1" as="geometry">
            <mxPoint x="480" y="310" as="sourcePoint" />
            <mxPoint x="530" y="260" as="targetPoint" />
          </mxGeometry>
        </mxCell>
        <mxCell id="JEJW3hreMP1SYT_nmHP7-21" value="" style="endArrow=none;html=1;rounded=0;entryX=0.5;entryY=0;entryDx=0;entryDy=0;exitX=1;exitY=0.5;exitDx=0;exitDy=0;" parent="1" source="YXkOq4lO17gAsWJ2cgE3-8" target="YXkOq4lO17gAsWJ2cgE3-59" edge="1">
          <mxGeometry width="50" height="50" relative="1" as="geometry">
            <mxPoint x="520" y="700" as="sourcePoint" />
            <mxPoint x="570" y="650" as="targetPoint" />
          </mxGeometry>
        </mxCell>
        <mxCell id="JEJW3hreMP1SYT_nmHP7-24" value="" style="endArrow=classic;html=1;rounded=0;entryX=1;entryY=0.5;entryDx=0;entryDy=0;exitX=0;exitY=0.5;exitDx=0;exitDy=0;" parent="1" source="YXkOq4lO17gAsWJ2cgE3-59" target="YXkOq4lO17gAsWJ2cgE3-4" edge="1">
          <mxGeometry width="50" height="50" relative="1" as="geometry">
            <mxPoint x="550" y="580" as="sourcePoint" />
            <mxPoint x="600" y="530" as="targetPoint" />
          </mxGeometry>
        </mxCell>
        <mxCell id="JEJW3hreMP1SYT_nmHP7-25" value="" style="endArrow=classic;html=1;rounded=0;entryX=0;entryY=0.5;entryDx=0;entryDy=0;exitX=1;exitY=0.5;exitDx=0;exitDy=0;" parent="1" source="YXkOq4lO17gAsWJ2cgE3-59" target="YXkOq4lO17gAsWJ2cgE3-60" edge="1">
          <mxGeometry width="50" height="50" relative="1" as="geometry">
            <mxPoint x="490" y="670" as="sourcePoint" />
            <mxPoint x="540" y="620" as="targetPoint" />
          </mxGeometry>
        </mxCell>
        <mxCell id="JEJW3hreMP1SYT_nmHP7-28" value="" style="endArrow=classic;html=1;rounded=0;exitX=1;exitY=0.5;exitDx=0;exitDy=0;entryX=0;entryY=0.5;entryDx=0;entryDy=0;" parent="1" source="YXkOq4lO17gAsWJ2cgE3-43" target="YXkOq4lO17gAsWJ2cgE3-41" edge="1">
          <mxGeometry width="50" height="50" relative="1" as="geometry">
            <mxPoint x="140" y="560" as="sourcePoint" />
            <mxPoint x="190" y="510" as="targetPoint" />
          </mxGeometry>
        </mxCell>
        <mxCell id="JEJW3hreMP1SYT_nmHP7-29" value="product_id" style="ellipse;whiteSpace=wrap;html=1;" parent="1" vertex="1">
          <mxGeometry x="20" y="-190" width="120" height="80" as="geometry" />
        </mxCell>
        <mxCell id="JEJW3hreMP1SYT_nmHP7-30" value="&lt;u&gt;manufacturer_id&lt;/u&gt;" style="ellipse;whiteSpace=wrap;html=1;" parent="1" vertex="1">
          <mxGeometry x="-140" y="160" width="120" height="50" as="geometry" />
        </mxCell>
        <mxCell id="JEJW3hreMP1SYT_nmHP7-31" value="contact_info" style="ellipse;whiteSpace=wrap;html=1;" parent="1" vertex="1">
          <mxGeometry x="-150" y="320" width="120" height="50" as="geometry" />
        </mxCell>
        <mxCell id="JEJW3hreMP1SYT_nmHP7-32" value="customer_id" style="ellipse;whiteSpace=wrap;html=1;" parent="1" vertex="1">
          <mxGeometry x="330" y="40" width="120" height="40" as="geometry" />
        </mxCell>
        <mxCell id="JEJW3hreMP1SYT_nmHP7-33" value="quantity" style="ellipse;whiteSpace=wrap;html=1;" parent="1" vertex="1">
          <mxGeometry x="50" y="-80" width="120" height="80" as="geometry" />
        </mxCell>
        <mxCell id="JEJW3hreMP1SYT_nmHP7-34" value="&lt;u&gt;order_item_id&lt;/u&gt;" style="ellipse;whiteSpace=wrap;html=1;" parent="1" vertex="1">
          <mxGeometry x="180" y="-310" width="120" height="80" as="geometry" />
        </mxCell>
        <mxCell id="JEJW3hreMP1SYT_nmHP7-35" value="order_id" style="ellipse;whiteSpace=wrap;html=1;" parent="1" vertex="1">
          <mxGeometry x="340" y="-190" width="120" height="80" as="geometry" />
        </mxCell>
        <mxCell id="JEJW3hreMP1SYT_nmHP7-36" value="name" style="ellipse;whiteSpace=wrap;html=1;" parent="1" vertex="1">
          <mxGeometry x="-210" y="240" width="120" height="50" as="geometry" />
        </mxCell>
        <mxCell id="JEJW3hreMP1SYT_nmHP7-37" value="Name" style="ellipse;whiteSpace=wrap;html=1;" parent="1" vertex="1">
          <mxGeometry x="-10" y="765.5" width="120" height="34.5" as="geometry" />
        </mxCell>
        <mxCell id="JEJW3hreMP1SYT_nmHP7-39" value="&lt;u&gt;purchase_order_item_id&lt;/u&gt;" style="ellipse;whiteSpace=wrap;html=1;" parent="1" vertex="1">
          <mxGeometry x="-340" y="420" width="170" height="80" as="geometry" />
        </mxCell>
        <mxCell id="JEJW3hreMP1SYT_nmHP7-40" value="product_id" style="ellipse;whiteSpace=wrap;html=1;" parent="1" vertex="1">
          <mxGeometry x="-545" y="560" width="120" height="80" as="geometry" />
        </mxCell>
        <mxCell id="JEJW3hreMP1SYT_nmHP7-41" value="contact_info" style="ellipse;whiteSpace=wrap;html=1;" parent="1" vertex="1">
          <mxGeometry y="710" width="120" height="40" as="geometry" />
        </mxCell>
        <mxCell id="JEJW3hreMP1SYT_nmHP7-42" value="contact_info" style="ellipse;whiteSpace=wrap;html=1;" parent="1" vertex="1">
          <mxGeometry x="480" y="190" width="120" height="40" as="geometry" />
        </mxCell>
        <mxCell id="JEJW3hreMP1SYT_nmHP7-43" value="&lt;u&gt;supplier_id&lt;/u&gt;" style="ellipse;whiteSpace=wrap;html=1;" parent="1" vertex="1">
          <mxGeometry x="460" y="140" width="120" height="40" as="geometry" />
        </mxCell>
        <mxCell id="JEJW3hreMP1SYT_nmHP7-44" value="name" style="ellipse;whiteSpace=wrap;html=1;" parent="1" vertex="1">
          <mxGeometry x="610" y="170" width="120" height="50" as="geometry" />
        </mxCell>
        <mxCell id="JEJW3hreMP1SYT_nmHP7-45" value="&lt;u&gt;order_id&lt;/u&gt;" style="ellipse;whiteSpace=wrap;html=1;" parent="1" vertex="1">
          <mxGeometry x="110" y="190" width="100" height="40" as="geometry" />
        </mxCell>
        <mxCell id="JEJW3hreMP1SYT_nmHP7-46" value="&lt;u&gt;location_id&lt;/u&gt;" style="ellipse;whiteSpace=wrap;html=1;" parent="1" vertex="1">
          <mxGeometry x="1090" y="140" width="120" height="80" as="geometry" />
        </mxCell>
        <mxCell id="JEJW3hreMP1SYT_nmHP7-47" value="address" style="ellipse;whiteSpace=wrap;html=1;" parent="1" vertex="1">
          <mxGeometry x="1250" y="175" width="120" height="80" as="geometry" />
        </mxCell>
        <mxCell id="JEJW3hreMP1SYT_nmHP7-48" value="city" style="ellipse;whiteSpace=wrap;html=1;" parent="1" vertex="1">
          <mxGeometry x="1300" y="280" width="120" height="80" as="geometry" />
        </mxCell>
        <mxCell id="JEJW3hreMP1SYT_nmHP7-49" value="quantity" style="ellipse;whiteSpace=wrap;html=1;" parent="1" vertex="1">
          <mxGeometry x="-130" y="960" width="120" height="80" as="geometry" />
        </mxCell>
        <mxCell id="JEJW3hreMP1SYT_nmHP7-50" value="product_id" style="ellipse;whiteSpace=wrap;html=1;" parent="1" vertex="1">
          <mxGeometry x="-310" y="970" width="120" height="80" as="geometry" />
        </mxCell>
        <mxCell id="JEJW3hreMP1SYT_nmHP7-51" value="sales_order_id" style="ellipse;whiteSpace=wrap;html=1;" parent="1" vertex="1">
          <mxGeometry x="-370" y="810" width="120" height="80" as="geometry" />
        </mxCell>
        <mxCell id="JEJW3hreMP1SYT_nmHP7-52" value="&lt;u&gt;sales_order_item_id&lt;/u&gt;" style="ellipse;whiteSpace=wrap;html=1;" parent="1" vertex="1">
          <mxGeometry x="-490" y="921" width="120" height="80" as="geometry" />
        </mxCell>
        <mxCell id="JEJW3hreMP1SYT_nmHP7-59" value="" style="endArrow=classic;startArrow=classic;html=1;rounded=0;entryX=0.5;entryY=1;entryDx=0;entryDy=0;exitX=1;exitY=0.5;exitDx=0;exitDy=0;" parent="1" source="JEJW3hreMP1SYT_nmHP7-45" target="YXkOq4lO17gAsWJ2cgE3-27" edge="1">
          <mxGeometry width="50" height="50" relative="1" as="geometry">
            <mxPoint x="210" y="250" as="sourcePoint" />
            <mxPoint x="260" y="200" as="targetPoint" />
          </mxGeometry>
        </mxCell>
        <mxCell id="JEJW3hreMP1SYT_nmHP7-60" value="&lt;u&gt;customer_id&lt;/u&gt;" style="ellipse;whiteSpace=wrap;html=1;" parent="1" vertex="1">
          <mxGeometry x="250" y="781" width="100" height="49" as="geometry" />
        </mxCell>
        <mxCell id="JEJW3hreMP1SYT_nmHP7-64" value="warehouse_id" style="ellipse;whiteSpace=wrap;html=1;" parent="1" vertex="1">
          <mxGeometry x="860" y="890" width="120" height="40" as="geometry" />
        </mxCell>
        <mxCell id="JEJW3hreMP1SYT_nmHP7-65" value="product_id" style="ellipse;whiteSpace=wrap;html=1;" parent="1" vertex="1">
          <mxGeometry x="680" y="970" width="120" height="40" as="geometry" />
        </mxCell>
        <mxCell id="JEJW3hreMP1SYT_nmHP7-66" value="&lt;u&gt;inventory_id&lt;/u&gt;" style="ellipse;whiteSpace=wrap;html=1;" parent="1" vertex="1">
          <mxGeometry x="660" y="870" width="120" height="50" as="geometry" />
        </mxCell>
        <mxCell id="JEJW3hreMP1SYT_nmHP7-69" value="quantity" style="ellipse;whiteSpace=wrap;html=1;" parent="1" vertex="1">
          <mxGeometry x="820" y="990" width="120" height="50" as="geometry" />
        </mxCell>
        <mxCell id="JEJW3hreMP1SYT_nmHP7-72" style="edgeStyle=orthogonalEdgeStyle;rounded=0;orthogonalLoop=1;jettySize=auto;html=1;exitX=0.25;exitY=1;exitDx=0;exitDy=0;entryX=0.74;entryY=0.089;entryDx=0;entryDy=0;entryPerimeter=0;endArrow=none;dashed=1;" parent="1" source="YXkOq4lO17gAsWJ2cgE3-60" target="JEJW3hreMP1SYT_nmHP7-65" edge="1">
          <mxGeometry relative="1" as="geometry" />
        </mxCell>
        <mxCell id="JEJW3hreMP1SYT_nmHP7-79" value="order_date" style="ellipse;whiteSpace=wrap;html=1;" parent="1" vertex="1">
          <mxGeometry x="60" y="30" width="120" height="50" as="geometry" />
        </mxCell>
        <mxCell id="JEJW3hreMP1SYT_nmHP7-81" style="edgeStyle=orthogonalEdgeStyle;rounded=0;orthogonalLoop=1;jettySize=auto;html=1;exitX=0.75;exitY=0;exitDx=0;exitDy=0;entryX=0.26;entryY=1.058;entryDx=0;entryDy=0;entryPerimeter=0;endArrow=none;dashed=1;" parent="1" source="YXkOq4lO17gAsWJ2cgE3-27" target="JEJW3hreMP1SYT_nmHP7-32" edge="1">
          <mxGeometry relative="1" as="geometry" />
        </mxCell>
        <mxCell id="JEJW3hreMP1SYT_nmHP7-87" style="edgeStyle=orthogonalEdgeStyle;rounded=0;orthogonalLoop=1;jettySize=auto;html=1;exitX=0.5;exitY=0;exitDx=0;exitDy=0;entryX=1.04;entryY=0.788;entryDx=0;entryDy=0;entryPerimeter=0;" parent="1" source="YXkOq4lO17gAsWJ2cgE3-1" target="JEJW3hreMP1SYT_nmHP7-30" edge="1">
          <mxGeometry relative="1" as="geometry" />
        </mxCell>
        <mxCell id="JEJW3hreMP1SYT_nmHP7-93" value="quantity" style="ellipse;whiteSpace=wrap;html=1;" parent="1" vertex="1">
          <mxGeometry x="-380" y="660" width="120" height="80" as="geometry" />
        </mxCell>
        <mxCell id="JEJW3hreMP1SYT_nmHP7-94" value="purchase_order_id" style="ellipse;whiteSpace=wrap;html=1;" parent="1" vertex="1">
          <mxGeometry x="-580" y="410" width="120" height="80" as="geometry" />
        </mxCell>
        <mxCell id="JEJW3hreMP1SYT_nmHP7-95" value="&lt;u&gt;purchase_order_id&lt;/u&gt;" style="ellipse;whiteSpace=wrap;html=1;" parent="1" vertex="1">
          <mxGeometry x="-160" y="490" width="120" height="40" as="geometry" />
        </mxCell>
        <mxCell id="JEJW3hreMP1SYT_nmHP7-96" value="order_date" style="ellipse;whiteSpace=wrap;html=1;" parent="1" vertex="1">
          <mxGeometry x="-140" y="630" width="120" height="40" as="geometry" />
        </mxCell>
        <mxCell id="JEJW3hreMP1SYT_nmHP7-101" value="state" style="ellipse;whiteSpace=wrap;html=1;" parent="1" vertex="1">
          <mxGeometry x="1270" y="400" width="120" height="80" as="geometry" />
        </mxCell>
        <mxCell id="JEJW3hreMP1SYT_nmHP7-110" value="supplier_id" style="ellipse;whiteSpace=wrap;html=1;" parent="1" vertex="1">
          <mxGeometry x="80" y="470" width="120" height="40" as="geometry" />
        </mxCell>
        <mxCell id="JEJW3hreMP1SYT_nmHP7-112" value="&lt;u&gt;warehouse_id&lt;/u&gt;" style="ellipse;whiteSpace=wrap;html=1;" parent="1" vertex="1">
          <mxGeometry x="860" y="670" width="120" height="30" as="geometry" />
        </mxCell>
        <mxCell id="JEJW3hreMP1SYT_nmHP7-113" value="name" style="ellipse;whiteSpace=wrap;html=1;" parent="1" vertex="1">
          <mxGeometry x="240" y="470" width="120" height="30" as="geometry" />
        </mxCell>
        <mxCell id="JEJW3hreMP1SYT_nmHP7-114" value="&lt;u&gt;sales_order_id&lt;/u&gt;" style="ellipse;whiteSpace=wrap;html=1;" parent="1" vertex="1">
          <mxGeometry x="425" y="800" width="120" height="40" as="geometry" />
        </mxCell>
        <mxCell id="JEJW3hreMP1SYT_nmHP7-115" value="customer_id" style="ellipse;whiteSpace=wrap;html=1;" parent="1" vertex="1">
          <mxGeometry x="680" y="350" width="120" height="30" as="geometry" />
        </mxCell>
        <mxCell id="JEJW3hreMP1SYT_nmHP7-116" value="customer_id" style="ellipse;whiteSpace=wrap;html=1;" parent="1" vertex="1">
          <mxGeometry x="460" y="950" width="120" height="40" as="geometry" />
        </mxCell>
        <mxCell id="JEJW3hreMP1SYT_nmHP7-117" value="order_date" style="ellipse;whiteSpace=wrap;html=1;" parent="1" vertex="1">
          <mxGeometry x="230" y="950" width="120" height="40" as="geometry" />
        </mxCell>
        <mxCell id="JEJW3hreMP1SYT_nmHP7-118" value="&lt;u&gt;employee_id&lt;/u&gt;" style="ellipse;whiteSpace=wrap;html=1;" parent="1" vertex="1">
          <mxGeometry x="230" y="520" width="120" height="30" as="geometry" />
        </mxCell>
        <mxCell id="JEJW3hreMP1SYT_nmHP7-119" value="position" style="ellipse;whiteSpace=wrap;html=1;" parent="1" vertex="1">
          <mxGeometry x="410" y="500" width="120" height="30" as="geometry" />
        </mxCell>
        <mxCell id="JEJW3hreMP1SYT_nmHP7-122" style="edgeStyle=orthogonalEdgeStyle;rounded=0;orthogonalLoop=1;jettySize=auto;html=1;exitX=0.25;exitY=0;exitDx=0;exitDy=0;entryX=0.996;entryY=0.886;entryDx=0;entryDy=0;entryPerimeter=0;" parent="1" source="YXkOq4lO17gAsWJ2cgE3-8" target="JEJW3hreMP1SYT_nmHP7-113" edge="1">
          <mxGeometry relative="1" as="geometry" />
        </mxCell>
        <mxCell id="JEJW3hreMP1SYT_nmHP7-123" value="location" style="ellipse;whiteSpace=wrap;html=1;" parent="1" vertex="1">
          <mxGeometry x="600" y="660" width="120" height="30" as="geometry" />
        </mxCell>
        <mxCell id="JEJW3hreMP1SYT_nmHP7-124" value="name" style="ellipse;whiteSpace=wrap;html=1;" parent="1" vertex="1">
          <mxGeometry x="760" y="640" width="120" height="30" as="geometry" />
        </mxCell>
        <mxCell id="JEJW3hreMP1SYT_nmHP7-128" value="&lt;u&gt;product_id&lt;/u&gt;" style="ellipse;whiteSpace=wrap;html=1;" parent="1" vertex="1">
          <mxGeometry x="660" y="270" width="120" height="30" as="geometry" />
        </mxCell>
        <mxCell id="JEJW3hreMP1SYT_nmHP7-129" value="name" style="ellipse;whiteSpace=wrap;html=1;" parent="1" vertex="1">
          <mxGeometry x="460" y="350" width="120" height="30" as="geometry" />
        </mxCell>
        <mxCell id="JEJW3hreMP1SYT_nmHP7-136" value="description" style="ellipse;whiteSpace=wrap;html=1;" parent="1" vertex="1">
          <mxGeometry x="810" y="340" width="120" height="30" as="geometry" />
        </mxCell>
        <mxCell id="JEJW3hreMP1SYT_nmHP7-137" value="manufacturer_id" style="ellipse;whiteSpace=wrap;html=1;" parent="1" vertex="1">
          <mxGeometry x="420" y="450" width="120" height="30" as="geometry" />
        </mxCell>
        <mxCell id="JEJW3hreMP1SYT_nmHP7-141" style="edgeStyle=orthogonalEdgeStyle;rounded=0;orthogonalLoop=1;jettySize=auto;html=1;exitX=0.75;exitY=1;exitDx=0;exitDy=0;entryX=0.392;entryY=0.007;entryDx=0;entryDy=0;entryPerimeter=0;endArrow=none;dashed=1;" parent="1" source="YXkOq4lO17gAsWJ2cgE3-12" target="JEJW3hreMP1SYT_nmHP7-116" edge="1">
          <mxGeometry relative="1" as="geometry" />
        </mxCell>
      </root>
    </mxGraphModel>
  </diagram>
</mxfile>
